<svg width="374" height="230" viewBox="0 0 374 230" fill="none" xmlns="http://www.w3.org/2000/svg">
<rect x="328.89" y="6.87622" width="43.2331" height="172.937" transform="rotate(11.744 328.89 6.87622)" fill="#404040"/>
<path fill-rule="evenodd" clip-rule="evenodd" d="M10 0C4.47715 0 0 4.47716 0 10V177.632C0 183.154 4.47714 187.632 9.99999 187.632H363.534C369.057 187.632 373.534 183.154 373.534 177.632V10C373.534 4.47715 369.057 0 363.534 0H10ZM29.0226 9.51129C23.4997 9.51129 19.0226 13.9884 19.0226 19.5113V168.12C19.0226 173.643 23.4997 178.12 29.0226 178.12H344.511C350.034 178.12 354.511 173.643 354.511 168.12V19.5113C354.511 13.9884 350.034 9.51129 344.511 9.51129H29.0226Z" fill="#56FFC2"/>
<path d="M205.789 188.496H166.88L125.376 230H247.293L205.789 188.496Z" fill="#56FFC2"/>
<path d="M145.847 102.128L166.229 109.26V118.714L137.636 106.839V100.001L145.847 102.128ZM166.229 96.3374L145.847 103.6L137.636 105.661V98.791L166.229 86.9155V96.3374ZM193.742 75.3672L176.894 127.089H169.467L186.315 75.3672H193.742ZM218.54 103.437L198.125 96.3374V86.9155L226.784 98.791V105.694L218.54 103.437ZM198.125 109.358L218.572 102.062L226.784 100.001V106.872L198.125 118.747V109.358Z" fill="#56FFC2"/>
</svg>
