<svg width="742" height="683" viewBox="0 0 742 683" fill="none" xmlns="http://www.w3.org/2000/svg">
<g clip-path="url(#clip0_120_290)">
<path d="M738.602 143.933C718.821 75.3685 610.062 28.8223 523.376 16.5689C436.511 4.31546 371.721 26.3338 319.208 40.9497C304.005 45.0972 289.833 48.6462 275.902 51.9852C284.698 61.4351 290.075 72.5651 290.075 76.3345C290.075 83.2645 274.44 143.072 259.668 143.072C244.896 143.072 229.272 82.351 229.272 67.6196C229.286 66.0325 229.395 64.4478 229.598 62.8736C210.06 67.5146 189.385 72.6386 165.596 79.2745C105.077 96.1479 24.6095 122.975 5.0397 169.868C-14.5406 216.939 26.7558 284.086 62.9073 361.534C98.901 438.813 129.823 526.561 190.521 560.844C199.034 565.627 208.063 569.432 217.435 572.184C217.803 570.388 218.14 568.74 218.424 567.28C210.607 530.016 212.374 463.005 214.973 456.065C214.973 456.065 360.105 485.402 369.637 487.271C372.12 479.007 385.851 442.173 393.026 436.934C400.202 431.695 470.885 407.461 470.885 407.461C470.885 407.461 470.832 369.199 471.705 360.536C370.09 290.334 431.177 229.287 434.649 233.592C438.121 237.897 564.641 344.545 564.999 351.475C565.325 359.066 550.016 422.57 537.717 460.391C566.556 435.59 594.595 407.387 623.287 375.751C689.088 303.27 758.329 212.676 738.602 143.933ZM225.8 394.367C208.429 394.367 159.799 325.897 159.799 298.167C159.799 282.564 169.352 246.161 196.276 246.161C204.094 246.161 221.465 260.031 224.063 263.496C226.74 266.262 229.579 268.867 232.565 271.297C232.018 274.059 230.46 281.703 228.861 289.683C241.992 304.498 266.623 335.683 266.623 358.835C266.623 378.775 262.277 394.367 225.8 394.367ZM240.529 271.297C228.367 271.297 200.548 231.398 200.548 182.898C200.548 168.199 212.711 154.297 230.955 154.297C272.641 154.297 276.113 240.963 276.113 247.893C276.176 257.427 266.622 271.297 240.572 271.297H240.529Z" fill="#F2F2F2"/>
<path d="M520.472 41.4118L311.549 0.493499C304.609 -0.843579 297.42 0.614423 291.553 4.54907C285.687 8.48372 281.618 14.5753 280.237 21.4934L252.229 163.904C273.977 186.657 276.176 242.391 276.176 247.904C276.176 257.438 266.623 271.308 240.572 271.308C238.194 271.308 235.216 269.764 231.965 266.961L231.313 270.279C232.144 270.993 232.565 271.329 232.565 271.329C232.039 273.985 230.461 281.997 228.861 289.714C241.992 304.498 266.623 335.683 266.623 358.835C266.623 378.785 262.277 394.367 225.8 394.367C221.591 394.367 215.636 390.409 208.965 384.004L200.548 427.054C199.436 432.814 200.253 438.78 202.872 444.032C205.492 449.284 209.77 453.531 215.047 456.117C215.688 456.243 359.947 485.402 369.711 487.313C372.194 479.049 385.925 442.215 393.1 436.976C400.276 431.737 470.958 407.503 470.958 407.503C470.958 407.503 470.906 369.241 471.779 360.578C370.164 290.376 431.251 229.329 434.723 233.634C436.427 235.734 467.507 262.309 498.903 289.714L541.504 72.6596C542.844 65.7349 541.385 58.5624 537.444 52.7079C533.504 46.8534 527.402 42.7925 520.472 41.4118V41.4118Z" fill="#303030"/>
<path d="M247.516 37.2853C233.617 37.2853 229.271 58.9572 229.271 67.6196C229.271 82.3195 244.906 143.03 259.668 143.03C274.429 143.03 290.075 83.1805 290.075 76.2926C290.075 69.4046 271.831 37.2853 247.516 37.2853Z" stroke="#303030" stroke-width="2.5" stroke-linecap="round" stroke-linejoin="round"/>
<path d="M184.219 405.886L387.187 445.638" stroke="#F2F2F2" stroke-width="3" stroke-miterlimit="10"/>
<path d="M231.018 154.349C212.774 154.349 200.611 168.209 200.611 182.951C200.611 231.482 228.409 271.35 240.593 271.35C266.644 271.35 276.197 257.48 276.197 247.946C276.176 240.963 272.704 154.349 231.018 154.349Z" stroke="#303030" stroke-width="2.5" stroke-linecap="round" stroke-linejoin="round"/>
<path d="M228.861 289.683C241.992 304.498 266.623 335.683 266.623 358.835C266.623 378.785 262.277 394.367 225.8 394.367C208.429 394.367 159.799 325.897 159.799 298.167C159.799 282.564 169.352 246.161 196.276 246.161C204.094 246.161 221.465 260.031 224.063 263.496C226.74 266.262 229.579 268.867 232.565 271.297C232.018 274.059 230.46 281.703 228.861 289.683Z" stroke="#303030" stroke-width="2.5" stroke-linecap="round" stroke-linejoin="round"/>
<path d="M221.465 281.703C222.58 282.816 225.295 285.64 228.83 289.683" stroke="black" stroke-width="2.5" stroke-linecap="round" stroke-linejoin="round"/>
<path d="M234.543 296.329C234.543 296.329 221.401 280.747 213.584 273.817" stroke="black" stroke-width="2.5" stroke-linecap="round" stroke-linejoin="round"/>
<path d="M380.874 681.687L399.981 605.416C399.981 605.416 516.306 503.997 527.595 485.811C538.885 467.625 565.377 361.439 564.999 351.475C564.693 344.545 438.195 237.929 434.723 233.592C431.251 229.256 370.163 290.292 471.779 360.536C470.906 369.199 470.958 407.461 470.958 407.461C470.958 407.461 400.276 431.705 393.1 436.934C385.925 442.163 372.194 479.007 369.711 487.271C360.158 485.402 215.047 456.065 215.047 456.065C212.448 463.005 210.68 530.016 218.498 567.28C213.237 594.15 192.436 681.73 192.436 681.73" stroke="#303030" stroke-width="2.5" stroke-linecap="round" stroke-linejoin="round"/>
<path d="M354.897 530.698C357.264 521.668 368.743 489.234 371.594 481.496" stroke="black" stroke-width="2.5" stroke-linecap="round" stroke-linejoin="round"/>
</g>
<defs>
<clipPath id="clip0_120_290">
<rect width="742" height="683" fill="white"/>
</clipPath>
</defs>
</svg>
